<mxfile host="app.diagrams.net" modified="2023-06-05T13:06:06.346Z" agent="Mozilla/5.0 (Windows NT 10.0; Win64; x64; rv:102.0) Gecko/20100101 Firefox/102.0" etag="XtUZ2iC5qznDO0JUvcB_" version="21.3.7" type="github">
  <diagram name="Page-1" id="2c0d36ab-eaac-3732-788b-9136903baeff">
    <mxGraphModel dx="1843" dy="783" grid="1" gridSize="10" guides="1" tooltips="1" connect="1" arrows="1" fold="1" page="1" pageScale="1.5" pageWidth="1169" pageHeight="827" background="none" math="0" shadow="0">
      <root>
        <mxCell id="0" />
        <mxCell id="1" parent="0" />
        <mxCell id="loCh9HqYS6-ZbyBUC8uW-208" value="" style="fillColor=#AE4132;strokeColor=none;opacity=30;" vertex="1" parent="1">
          <mxGeometry x="112" y="779.5" width="1470" height="99.99999999999994" as="geometry" />
        </mxCell>
        <mxCell id="loCh9HqYS6-ZbyBUC8uW-186" value="" style="fillColor=#F2931E;strokeColor=none;opacity=30;" vertex="1" parent="1">
          <mxGeometry x="1237" y="450" width="440" height="270" as="geometry" />
        </mxCell>
        <mxCell id="loCh9HqYS6-ZbyBUC8uW-185" value="" style="fillColor=#F2931E;strokeColor=none;opacity=30;" vertex="1" parent="1">
          <mxGeometry x="642" y="450" width="440" height="270" as="geometry" />
        </mxCell>
        <mxCell id="123" value="" style="fillColor=#AE4132;strokeColor=none;opacity=30;" parent="1" vertex="1">
          <mxGeometry x="747" y="175.50000000000003" width="210" height="99.99999999999994" as="geometry" />
        </mxCell>
        <mxCell id="122" value="" style="fillColor=#10739E;strokeColor=none;opacity=30;" parent="1" vertex="1">
          <mxGeometry x="97" y="325.5" width="1470" height="99.99999999999994" as="geometry" />
        </mxCell>
        <mxCell id="118" value="" style="fillColor=#F2931E;strokeColor=none;opacity=30;" parent="1" vertex="1">
          <mxGeometry y="450" width="440" height="270" as="geometry" />
        </mxCell>
        <mxCell id="2" value="Extracted Features" style="rounded=1;fillColor=#23445D;gradientColor=none;strokeColor=none;fontColor=#FFFFFF;fontStyle=1;fontFamily=Tahoma;fontSize=14" parent="1" vertex="1">
          <mxGeometry x="757" y="185.5" width="190" height="80" as="geometry" />
        </mxCell>
        <mxCell id="4" value="Bootstrap Samples" style="rounded=1;fillColor=#23445D;gradientColor=none;strokeColor=none;fontColor=#FFFFFF;fontStyle=1;fontFamily=Tahoma;fontSize=14" parent="1" vertex="1">
          <mxGeometry x="1361.9999999999998" y="335.5" width="190" height="80" as="geometry" />
        </mxCell>
        <mxCell id="9" value="" style="edgeStyle=elbowEdgeStyle;elbow=vertical;strokeWidth=2;rounded=0" parent="1" source="2" target="4" edge="1">
          <mxGeometry x="337" y="215.5" width="100" height="100" as="geometry">
            <mxPoint x="337" y="315.5" as="sourcePoint" />
            <mxPoint x="437" y="215.5" as="targetPoint" />
          </mxGeometry>
        </mxCell>
        <mxCell id="12" value="Bootstrap Samples" style="rounded=1;fillColor=#23445D;gradientColor=none;strokeColor=none;fontColor=#FFFFFF;fontStyle=1;fontFamily=Tahoma;fontSize=14" parent="1" vertex="1">
          <mxGeometry x="756.9999999999999" y="335.5" width="190" height="80" as="geometry" />
        </mxCell>
        <mxCell id="13" value="Bootstrap Samples" style="rounded=1;fillColor=#23445D;gradientColor=none;strokeColor=none;fontColor=#FFFFFF;fontStyle=1;fontFamily=Tahoma;fontSize=14" parent="1" vertex="1">
          <mxGeometry x="107" y="335.5" width="190" height="80" as="geometry" />
        </mxCell>
        <mxCell id="59" value="" style="edgeStyle=elbowEdgeStyle;elbow=vertical;strokeWidth=2;rounded=0" parent="1" source="2" target="12" edge="1">
          <mxGeometry x="347" y="225.5" width="100" height="100" as="geometry">
            <mxPoint x="861.9999999999999" y="275.5" as="sourcePoint" />
            <mxPoint x="1466.9999999999998" y="345.5" as="targetPoint" />
          </mxGeometry>
        </mxCell>
        <mxCell id="61" value="" style="edgeStyle=elbowEdgeStyle;elbow=vertical;strokeWidth=2;rounded=0" parent="1" source="2" target="13" edge="1">
          <mxGeometry x="-23" y="135.5" width="100" height="100" as="geometry">
            <mxPoint x="-23" y="235.5" as="sourcePoint" />
            <mxPoint x="77" y="135.5" as="targetPoint" />
          </mxGeometry>
        </mxCell>
        <mxCell id="104" value="" style="edgeStyle=elbowEdgeStyle;elbow=vertical;strokeWidth=2;rounded=0" parent="1" source="4" edge="1">
          <mxGeometry x="-23" y="135.5" width="100" height="100" as="geometry">
            <mxPoint x="-23" y="235.5" as="sourcePoint" />
            <mxPoint x="1457" y="455.5" as="targetPoint" />
          </mxGeometry>
        </mxCell>
        <mxCell id="loCh9HqYS6-ZbyBUC8uW-136" value="" style="edgeStyle=orthogonalEdgeStyle;rounded=0;orthogonalLoop=1;jettySize=auto;html=1;" edge="1" parent="1" source="loCh9HqYS6-ZbyBUC8uW-134" target="loCh9HqYS6-ZbyBUC8uW-135">
          <mxGeometry relative="1" as="geometry" />
        </mxCell>
        <mxCell id="loCh9HqYS6-ZbyBUC8uW-138" value="" style="edgeStyle=orthogonalEdgeStyle;rounded=0;orthogonalLoop=1;jettySize=auto;html=1;" edge="1" parent="1" source="loCh9HqYS6-ZbyBUC8uW-134">
          <mxGeometry relative="1" as="geometry">
            <mxPoint x="1560" y="550" as="targetPoint" />
          </mxGeometry>
        </mxCell>
        <mxCell id="loCh9HqYS6-ZbyBUC8uW-134" value="" style="ellipse;whiteSpace=wrap;html=1;aspect=fixed;" vertex="1" parent="1">
          <mxGeometry x="1437" y="460" width="40" height="40" as="geometry" />
        </mxCell>
        <mxCell id="loCh9HqYS6-ZbyBUC8uW-140" value="" style="edgeStyle=orthogonalEdgeStyle;rounded=0;orthogonalLoop=1;jettySize=auto;html=1;" edge="1" parent="1" source="loCh9HqYS6-ZbyBUC8uW-135" target="loCh9HqYS6-ZbyBUC8uW-139">
          <mxGeometry relative="1" as="geometry" />
        </mxCell>
        <mxCell id="loCh9HqYS6-ZbyBUC8uW-142" value="" style="edgeStyle=orthogonalEdgeStyle;rounded=0;orthogonalLoop=1;jettySize=auto;html=1;" edge="1" parent="1" source="loCh9HqYS6-ZbyBUC8uW-135" target="loCh9HqYS6-ZbyBUC8uW-141">
          <mxGeometry relative="1" as="geometry" />
        </mxCell>
        <mxCell id="loCh9HqYS6-ZbyBUC8uW-135" value="" style="ellipse;whiteSpace=wrap;html=1;aspect=fixed;" vertex="1" parent="1">
          <mxGeometry x="1350" y="550" width="40" height="40" as="geometry" />
        </mxCell>
        <mxCell id="loCh9HqYS6-ZbyBUC8uW-139" value="" style="ellipse;whiteSpace=wrap;html=1;aspect=fixed;" vertex="1" parent="1">
          <mxGeometry x="1290" y="670" width="40" height="40" as="geometry" />
        </mxCell>
        <mxCell id="loCh9HqYS6-ZbyBUC8uW-141" value="" style="ellipse;whiteSpace=wrap;html=1;aspect=fixed;" vertex="1" parent="1">
          <mxGeometry x="1420" y="670" width="40" height="40" as="geometry" />
        </mxCell>
        <mxCell id="loCh9HqYS6-ZbyBUC8uW-145" value="" style="edgeStyle=orthogonalEdgeStyle;rounded=0;orthogonalLoop=1;jettySize=auto;html=1;" edge="1" parent="1" source="loCh9HqYS6-ZbyBUC8uW-147" target="loCh9HqYS6-ZbyBUC8uW-148">
          <mxGeometry relative="1" as="geometry" />
        </mxCell>
        <mxCell id="loCh9HqYS6-ZbyBUC8uW-146" value="" style="edgeStyle=orthogonalEdgeStyle;rounded=0;orthogonalLoop=1;jettySize=auto;html=1;" edge="1" parent="1" source="loCh9HqYS6-ZbyBUC8uW-147" target="loCh9HqYS6-ZbyBUC8uW-149">
          <mxGeometry relative="1" as="geometry" />
        </mxCell>
        <mxCell id="loCh9HqYS6-ZbyBUC8uW-147" value="" style="ellipse;whiteSpace=wrap;html=1;aspect=fixed;" vertex="1" parent="1">
          <mxGeometry x="1540" y="550" width="40" height="40" as="geometry" />
        </mxCell>
        <mxCell id="loCh9HqYS6-ZbyBUC8uW-148" value="" style="ellipse;whiteSpace=wrap;html=1;aspect=fixed;" vertex="1" parent="1">
          <mxGeometry x="1480" y="670" width="40" height="40" as="geometry" />
        </mxCell>
        <mxCell id="loCh9HqYS6-ZbyBUC8uW-149" value="" style="ellipse;whiteSpace=wrap;html=1;aspect=fixed;" vertex="1" parent="1">
          <mxGeometry x="1610" y="670" width="40" height="40" as="geometry" />
        </mxCell>
        <mxCell id="loCh9HqYS6-ZbyBUC8uW-150" value="" style="edgeStyle=elbowEdgeStyle;elbow=vertical;strokeWidth=2;rounded=0" edge="1" parent="1">
          <mxGeometry x="-10" y="205.5" width="100" height="100" as="geometry">
            <mxPoint x="1470" y="710.5" as="sourcePoint" />
            <mxPoint x="1470" y="786" as="targetPoint" />
            <Array as="points">
              <mxPoint x="1463" y="710" />
            </Array>
          </mxGeometry>
        </mxCell>
        <mxCell id="loCh9HqYS6-ZbyBUC8uW-191" style="edgeStyle=orthogonalEdgeStyle;rounded=0;orthogonalLoop=1;jettySize=auto;html=1;exitX=0.5;exitY=1;exitDx=0;exitDy=0;entryX=0.5;entryY=0;entryDx=0;entryDy=0;" edge="1" parent="1" source="loCh9HqYS6-ZbyBUC8uW-152" target="loCh9HqYS6-ZbyBUC8uW-189">
          <mxGeometry relative="1" as="geometry">
            <Array as="points">
              <mxPoint x="1472" y="1020" />
              <mxPoint x="870" y="1020" />
            </Array>
          </mxGeometry>
        </mxCell>
        <mxCell id="loCh9HqYS6-ZbyBUC8uW-152" value="Prediction" style="rounded=1;fillColor=#23445D;gradientColor=none;strokeColor=none;fontColor=#FFFFFF;fontStyle=1;fontFamily=Tahoma;fontSize=14" vertex="1" parent="1">
          <mxGeometry x="1376.9999999999998" y="790" width="190" height="80" as="geometry" />
        </mxCell>
        <mxCell id="loCh9HqYS6-ZbyBUC8uW-153" value="" style="edgeStyle=elbowEdgeStyle;elbow=vertical;strokeWidth=2;rounded=0" edge="1" parent="1">
          <mxGeometry x="-633" y="135" width="100" height="100" as="geometry">
            <mxPoint x="847" y="415.5" as="sourcePoint" />
            <mxPoint x="847" y="455" as="targetPoint" />
          </mxGeometry>
        </mxCell>
        <mxCell id="loCh9HqYS6-ZbyBUC8uW-154" value="" style="edgeStyle=orthogonalEdgeStyle;rounded=0;orthogonalLoop=1;jettySize=auto;html=1;" edge="1" parent="1" source="loCh9HqYS6-ZbyBUC8uW-156" target="loCh9HqYS6-ZbyBUC8uW-159">
          <mxGeometry relative="1" as="geometry" />
        </mxCell>
        <mxCell id="loCh9HqYS6-ZbyBUC8uW-155" value="" style="edgeStyle=orthogonalEdgeStyle;rounded=0;orthogonalLoop=1;jettySize=auto;html=1;" edge="1" parent="1" source="loCh9HqYS6-ZbyBUC8uW-156">
          <mxGeometry relative="1" as="geometry">
            <mxPoint x="950" y="549.5" as="targetPoint" />
          </mxGeometry>
        </mxCell>
        <mxCell id="loCh9HqYS6-ZbyBUC8uW-156" value="" style="ellipse;whiteSpace=wrap;html=1;aspect=fixed;" vertex="1" parent="1">
          <mxGeometry x="827" y="459.5" width="40" height="40" as="geometry" />
        </mxCell>
        <mxCell id="loCh9HqYS6-ZbyBUC8uW-157" value="" style="edgeStyle=orthogonalEdgeStyle;rounded=0;orthogonalLoop=1;jettySize=auto;html=1;" edge="1" parent="1" source="loCh9HqYS6-ZbyBUC8uW-159" target="loCh9HqYS6-ZbyBUC8uW-160">
          <mxGeometry relative="1" as="geometry" />
        </mxCell>
        <mxCell id="loCh9HqYS6-ZbyBUC8uW-158" value="" style="edgeStyle=orthogonalEdgeStyle;rounded=0;orthogonalLoop=1;jettySize=auto;html=1;" edge="1" parent="1" source="loCh9HqYS6-ZbyBUC8uW-159" target="loCh9HqYS6-ZbyBUC8uW-161">
          <mxGeometry relative="1" as="geometry" />
        </mxCell>
        <mxCell id="loCh9HqYS6-ZbyBUC8uW-159" value="" style="ellipse;whiteSpace=wrap;html=1;aspect=fixed;" vertex="1" parent="1">
          <mxGeometry x="740" y="549.5" width="40" height="40" as="geometry" />
        </mxCell>
        <mxCell id="loCh9HqYS6-ZbyBUC8uW-160" value="" style="ellipse;whiteSpace=wrap;html=1;aspect=fixed;" vertex="1" parent="1">
          <mxGeometry x="680" y="669.5" width="40" height="40" as="geometry" />
        </mxCell>
        <mxCell id="loCh9HqYS6-ZbyBUC8uW-161" value="" style="ellipse;whiteSpace=wrap;html=1;aspect=fixed;" vertex="1" parent="1">
          <mxGeometry x="810" y="669.5" width="40" height="40" as="geometry" />
        </mxCell>
        <mxCell id="loCh9HqYS6-ZbyBUC8uW-162" value="" style="edgeStyle=orthogonalEdgeStyle;rounded=0;orthogonalLoop=1;jettySize=auto;html=1;" edge="1" parent="1" source="loCh9HqYS6-ZbyBUC8uW-164" target="loCh9HqYS6-ZbyBUC8uW-165">
          <mxGeometry relative="1" as="geometry" />
        </mxCell>
        <mxCell id="loCh9HqYS6-ZbyBUC8uW-163" value="" style="edgeStyle=orthogonalEdgeStyle;rounded=0;orthogonalLoop=1;jettySize=auto;html=1;" edge="1" parent="1" source="loCh9HqYS6-ZbyBUC8uW-164" target="loCh9HqYS6-ZbyBUC8uW-166">
          <mxGeometry relative="1" as="geometry" />
        </mxCell>
        <mxCell id="loCh9HqYS6-ZbyBUC8uW-164" value="" style="ellipse;whiteSpace=wrap;html=1;aspect=fixed;" vertex="1" parent="1">
          <mxGeometry x="930" y="549.5" width="40" height="40" as="geometry" />
        </mxCell>
        <mxCell id="loCh9HqYS6-ZbyBUC8uW-165" value="" style="ellipse;whiteSpace=wrap;html=1;aspect=fixed;" vertex="1" parent="1">
          <mxGeometry x="870" y="669.5" width="40" height="40" as="geometry" />
        </mxCell>
        <mxCell id="loCh9HqYS6-ZbyBUC8uW-166" value="" style="ellipse;whiteSpace=wrap;html=1;aspect=fixed;" vertex="1" parent="1">
          <mxGeometry x="1000" y="669.5" width="40" height="40" as="geometry" />
        </mxCell>
        <mxCell id="loCh9HqYS6-ZbyBUC8uW-167" value="" style="edgeStyle=elbowEdgeStyle;elbow=vertical;strokeWidth=2;rounded=0" edge="1" parent="1">
          <mxGeometry x="-620" y="205" width="100" height="100" as="geometry">
            <mxPoint x="860" y="710" as="sourcePoint" />
            <mxPoint x="860" y="785.5" as="targetPoint" />
            <Array as="points">
              <mxPoint x="853" y="709.5" />
            </Array>
          </mxGeometry>
        </mxCell>
        <mxCell id="loCh9HqYS6-ZbyBUC8uW-192" style="edgeStyle=orthogonalEdgeStyle;rounded=0;orthogonalLoop=1;jettySize=auto;html=1;exitX=0.5;exitY=1;exitDx=0;exitDy=0;entryX=0.5;entryY=0;entryDx=0;entryDy=0;" edge="1" parent="1" source="loCh9HqYS6-ZbyBUC8uW-168" target="loCh9HqYS6-ZbyBUC8uW-189">
          <mxGeometry relative="1" as="geometry">
            <Array as="points">
              <mxPoint x="870" y="870" />
            </Array>
          </mxGeometry>
        </mxCell>
        <mxCell id="loCh9HqYS6-ZbyBUC8uW-168" value="Prediction" style="rounded=1;fillColor=#23445D;gradientColor=none;strokeColor=none;fontColor=#FFFFFF;fontStyle=1;fontFamily=Tahoma;fontSize=14" vertex="1" parent="1">
          <mxGeometry x="766.9999999999998" y="789.5" width="190" height="80" as="geometry" />
        </mxCell>
        <mxCell id="loCh9HqYS6-ZbyBUC8uW-169" value="" style="edgeStyle=elbowEdgeStyle;elbow=vertical;strokeWidth=2;rounded=0" edge="1" parent="1">
          <mxGeometry x="-1273" y="135.5" width="100" height="100" as="geometry">
            <mxPoint x="207" y="416" as="sourcePoint" />
            <mxPoint x="207" y="455.5" as="targetPoint" />
          </mxGeometry>
        </mxCell>
        <mxCell id="loCh9HqYS6-ZbyBUC8uW-170" value="" style="edgeStyle=orthogonalEdgeStyle;rounded=0;orthogonalLoop=1;jettySize=auto;html=1;" edge="1" parent="1" source="loCh9HqYS6-ZbyBUC8uW-172" target="loCh9HqYS6-ZbyBUC8uW-175">
          <mxGeometry relative="1" as="geometry" />
        </mxCell>
        <mxCell id="loCh9HqYS6-ZbyBUC8uW-171" value="" style="edgeStyle=orthogonalEdgeStyle;rounded=0;orthogonalLoop=1;jettySize=auto;html=1;" edge="1" parent="1" source="loCh9HqYS6-ZbyBUC8uW-172">
          <mxGeometry relative="1" as="geometry">
            <mxPoint x="310" y="550" as="targetPoint" />
          </mxGeometry>
        </mxCell>
        <mxCell id="loCh9HqYS6-ZbyBUC8uW-172" value="" style="ellipse;whiteSpace=wrap;html=1;aspect=fixed;" vertex="1" parent="1">
          <mxGeometry x="187" y="460" width="40" height="40" as="geometry" />
        </mxCell>
        <mxCell id="loCh9HqYS6-ZbyBUC8uW-173" value="" style="edgeStyle=orthogonalEdgeStyle;rounded=0;orthogonalLoop=1;jettySize=auto;html=1;" edge="1" parent="1" source="loCh9HqYS6-ZbyBUC8uW-175" target="loCh9HqYS6-ZbyBUC8uW-176">
          <mxGeometry relative="1" as="geometry" />
        </mxCell>
        <mxCell id="loCh9HqYS6-ZbyBUC8uW-174" value="" style="edgeStyle=orthogonalEdgeStyle;rounded=0;orthogonalLoop=1;jettySize=auto;html=1;" edge="1" parent="1" source="loCh9HqYS6-ZbyBUC8uW-175" target="loCh9HqYS6-ZbyBUC8uW-177">
          <mxGeometry relative="1" as="geometry" />
        </mxCell>
        <mxCell id="loCh9HqYS6-ZbyBUC8uW-175" value="" style="ellipse;whiteSpace=wrap;html=1;aspect=fixed;" vertex="1" parent="1">
          <mxGeometry x="100" y="550" width="40" height="40" as="geometry" />
        </mxCell>
        <mxCell id="loCh9HqYS6-ZbyBUC8uW-176" value="" style="ellipse;whiteSpace=wrap;html=1;aspect=fixed;" vertex="1" parent="1">
          <mxGeometry x="40" y="670" width="40" height="40" as="geometry" />
        </mxCell>
        <mxCell id="loCh9HqYS6-ZbyBUC8uW-177" value="" style="ellipse;whiteSpace=wrap;html=1;aspect=fixed;" vertex="1" parent="1">
          <mxGeometry x="170" y="670" width="40" height="40" as="geometry" />
        </mxCell>
        <mxCell id="loCh9HqYS6-ZbyBUC8uW-178" value="" style="edgeStyle=orthogonalEdgeStyle;rounded=0;orthogonalLoop=1;jettySize=auto;html=1;" edge="1" parent="1" source="loCh9HqYS6-ZbyBUC8uW-180" target="loCh9HqYS6-ZbyBUC8uW-181">
          <mxGeometry relative="1" as="geometry" />
        </mxCell>
        <mxCell id="loCh9HqYS6-ZbyBUC8uW-179" value="" style="edgeStyle=orthogonalEdgeStyle;rounded=0;orthogonalLoop=1;jettySize=auto;html=1;" edge="1" parent="1" source="loCh9HqYS6-ZbyBUC8uW-180" target="loCh9HqYS6-ZbyBUC8uW-182">
          <mxGeometry relative="1" as="geometry" />
        </mxCell>
        <mxCell id="loCh9HqYS6-ZbyBUC8uW-180" value="" style="ellipse;whiteSpace=wrap;html=1;aspect=fixed;" vertex="1" parent="1">
          <mxGeometry x="290" y="550" width="40" height="40" as="geometry" />
        </mxCell>
        <mxCell id="loCh9HqYS6-ZbyBUC8uW-181" value="" style="ellipse;whiteSpace=wrap;html=1;aspect=fixed;" vertex="1" parent="1">
          <mxGeometry x="230" y="670" width="40" height="40" as="geometry" />
        </mxCell>
        <mxCell id="loCh9HqYS6-ZbyBUC8uW-182" value="" style="ellipse;whiteSpace=wrap;html=1;aspect=fixed;" vertex="1" parent="1">
          <mxGeometry x="360" y="670" width="40" height="40" as="geometry" />
        </mxCell>
        <mxCell id="loCh9HqYS6-ZbyBUC8uW-183" value="" style="edgeStyle=elbowEdgeStyle;elbow=vertical;strokeWidth=2;rounded=0" edge="1" parent="1">
          <mxGeometry x="-1260" y="205.5" width="100" height="100" as="geometry">
            <mxPoint x="220" y="710.5" as="sourcePoint" />
            <mxPoint x="220" y="786" as="targetPoint" />
            <Array as="points">
              <mxPoint x="213" y="710" />
            </Array>
          </mxGeometry>
        </mxCell>
        <mxCell id="loCh9HqYS6-ZbyBUC8uW-190" value="" style="edgeStyle=orthogonalEdgeStyle;rounded=0;orthogonalLoop=1;jettySize=auto;html=1;" edge="1" parent="1" source="loCh9HqYS6-ZbyBUC8uW-184" target="loCh9HqYS6-ZbyBUC8uW-189">
          <mxGeometry relative="1" as="geometry">
            <Array as="points">
              <mxPoint x="222" y="1020" />
              <mxPoint x="870" y="1020" />
            </Array>
          </mxGeometry>
        </mxCell>
        <mxCell id="loCh9HqYS6-ZbyBUC8uW-184" value="Prediction" style="rounded=1;fillColor=#23445D;gradientColor=none;strokeColor=none;fontColor=#FFFFFF;fontStyle=1;fontFamily=Tahoma;fontSize=14" vertex="1" parent="1">
          <mxGeometry x="126.99999999999977" y="790" width="190" height="80" as="geometry" />
        </mxCell>
        <mxCell id="loCh9HqYS6-ZbyBUC8uW-189" value="Output" style="whiteSpace=wrap;html=1;fontSize=14;fontFamily=Tahoma;fillColor=#23445D;strokeColor=none;fontColor=#FFFFFF;rounded=1;gradientColor=none;fontStyle=1;" vertex="1" parent="1">
          <mxGeometry x="809.9999999999998" y="1140" width="120" height="60" as="geometry" />
        </mxCell>
        <mxCell id="loCh9HqYS6-ZbyBUC8uW-195" value="&lt;sup&gt;&lt;font style=&quot;font-size: 40px;&quot;&gt;Tree&lt;/font&gt;&lt;/sup&gt;&lt;sub style=&quot;font-size: 26px;&quot;&gt;&lt;font style=&quot;font-size: 26px;&quot;&gt;&lt;font style=&quot;font-size: 26px;&quot;&gt;(1)&lt;/font&gt;&lt;/font&gt;&lt;/sub&gt;&lt;font style=&quot;font-size: 40px;&quot;&gt; &lt;/font&gt;" style="text;html=1;strokeColor=none;fillColor=none;align=center;verticalAlign=middle;whiteSpace=wrap;rounded=0;" vertex="1" parent="1">
          <mxGeometry x="187" y="530" width="62.12" height="25.85" as="geometry" />
        </mxCell>
        <mxCell id="loCh9HqYS6-ZbyBUC8uW-196" value="&lt;sup&gt;&lt;font style=&quot;font-size: 40px;&quot;&gt;Tree&lt;/font&gt;&lt;/sup&gt;&lt;sub style=&quot;font-size: 26px;&quot;&gt;&lt;font style=&quot;font-size: 26px;&quot;&gt;&lt;font style=&quot;font-size: 26px;&quot;&gt;(2)&lt;/font&gt;&lt;/font&gt;&lt;/sub&gt;&lt;font style=&quot;font-size: 40px;&quot;&gt; &lt;/font&gt;" style="text;html=1;strokeColor=none;fillColor=none;align=center;verticalAlign=middle;whiteSpace=wrap;rounded=0;" vertex="1" parent="1">
          <mxGeometry x="827" y="523.65" width="62.12" height="25.85" as="geometry" />
        </mxCell>
        <mxCell id="loCh9HqYS6-ZbyBUC8uW-197" value="&lt;sup&gt;&lt;font style=&quot;font-size: 40px;&quot;&gt;Tree&lt;/font&gt;&lt;/sup&gt;&lt;sub style=&quot;font-size: 26px;&quot;&gt;&lt;font style=&quot;font-size: 26px;&quot;&gt;&lt;font style=&quot;font-size: 26px;&quot;&gt;(N)&lt;/font&gt;&lt;/font&gt;&lt;/sub&gt;&lt;font style=&quot;font-size: 40px;&quot;&gt; &lt;/font&gt;" style="text;html=1;strokeColor=none;fillColor=none;align=center;verticalAlign=middle;whiteSpace=wrap;rounded=0;" vertex="1" parent="1">
          <mxGeometry x="1437" y="530" width="62.12" height="25.85" as="geometry" />
        </mxCell>
        <mxCell id="loCh9HqYS6-ZbyBUC8uW-204" value="" style="endArrow=none;dashed=1;html=1;dashPattern=1 3;strokeWidth=11;rounded=100;" edge="1" parent="1">
          <mxGeometry width="50" height="50" relative="1" as="geometry">
            <mxPoint x="1190" y="374.78999999999996" as="sourcePoint" />
            <mxPoint x="1100" y="374.78999999999996" as="targetPoint" />
            <Array as="points">
              <mxPoint x="1220" y="374.78999999999996" />
              <mxPoint x="1190" y="374.78999999999996" />
            </Array>
          </mxGeometry>
        </mxCell>
        <mxCell id="loCh9HqYS6-ZbyBUC8uW-205" value="" style="endArrow=none;dashed=1;html=1;dashPattern=1 3;strokeWidth=11;rounded=0;" edge="1" parent="1">
          <mxGeometry width="50" height="50" relative="1" as="geometry">
            <mxPoint x="1190" y="828.79" as="sourcePoint" />
            <mxPoint x="1100" y="828.79" as="targetPoint" />
            <Array as="points">
              <mxPoint x="1220" y="828.79" />
              <mxPoint x="1190" y="828.79" />
            </Array>
          </mxGeometry>
        </mxCell>
        <mxCell id="loCh9HqYS6-ZbyBUC8uW-206" value="" style="endArrow=none;dashed=1;html=1;dashPattern=1 3;strokeWidth=11;rounded=0;" edge="1" parent="1">
          <mxGeometry width="50" height="50" relative="1" as="geometry">
            <mxPoint x="1190" y="584.29" as="sourcePoint" />
            <mxPoint x="1100" y="584.29" as="targetPoint" />
            <Array as="points">
              <mxPoint x="1220" y="584.29" />
              <mxPoint x="1190" y="584.29" />
            </Array>
          </mxGeometry>
        </mxCell>
      </root>
    </mxGraphModel>
  </diagram>
</mxfile>
